# xmcd
#
# Track frame offsets:
#	182
#	15380
#	30605
#	45947
#	61492
#	80095
#	97220
#	111880
#	132585
#	148905
#	167000
#
# Disc length: 2435 seconds
#
# Revision: 3
# Processed by: cddbd v1.5.1PL2 Copyright (c) Steve Scherf et al.
# Submitted via: dBpowerAMP V4.0
#
DISCID=9709810b
DTITLE=Travis Tritt - The Restless Kind
DYEAR=1996
DGENRE=Country
TTITLE0=Restless Kind
TTITLE1=Still In Love With You
TTITLE2=More Than You'll Ever Know
TTITLE3=Draggin' My Heart Around
TTITLE4=Helping Me Get Over You
TTITLE5=Back Up Against The Wall
TTITLE6=Double Trouble
TTITLE7=Did You Fall Far Enough
TTITLE8=She's Going Home With Me
TTITLE9=Sack Full Of Stones
TTITLE10=Where Corn Don't Grow
EXTD=
EXTT0=
EXTT1=
EXTT2=
EXTT3=
EXTT4=
EXTT5=
EXTT6=
EXTT7=
EXTT8=
EXTT9=
EXTT10=
PLAYORDER=
